Coordinates
version=1
nRows=10
nColumns=63
inDegrees=yes

Units are S.I. units (second, meters, Newtons, ...)
If the header above contains a line with 'inDegrees', this indicates whether rotational values are in degrees (yes) or radians (no).

endheader
time	pelvis_tilt	pelvis_list	pelvis_rotation	pelvis_tx	pelvis_ty	pelvis_tz	hip_flexion_r	hip_adduction_r	hip_rotation_r	knee_angle_r	knee_angle_r_beta	ankle_angle_r	subtalar_angle_r	mtp_angle_r	hip_flexion_l	hip_adduction_l	hip_rotation_l	knee_angle_l	knee_angle_l_beta	ankle_angle_l	subtalar_angle_l	mtp_angle_l	L5_S1_Flex_Ext	L5_S1_Lat_Bending	L5_S1_axial_rotation	L4_L5_Flex_Ext	L4_L5_Lat_Bending	L4_L5_axial_rotation	L3_L4_Flex_Ext	L3_L4_Lat_Bending	L3_L4_axial_rotation	L2_L3_Flex_Ext	L2_L3_Lat_Bending	L2_L3_axial_rotation	L1_L2_Flex_Ext	L1_L2_Lat_Bending	L1_L2_axial_rotation	L1_T12_Flex_Ext	L1_T12_Lat_Bending	L1_T12_axial_rotation	Abs_r3	Abs_r2	Abs_r1	Abs_t1	Abs_t2	neck_flexion	neck_bending	neck_rotation	arm_flex_r	arm_add_r	arm_rot_r	elbow_flex_r	pro_sup_r	wrist_flex_r	wrist_dev_r	arm_flex_l	arm_add_l	arm_rot_l	elbow_flex_l	pro_sup_l	wrist_flex_l	wrist_dev_l
      5.65384615	     48.86596744	     10.93993630	    133.06190386	     -0.02965096	      0.95394306	      0.42985379	     13.47236869	     25.23093854	    -22.47160825	     17.26485219	      0.30132852	     12.43717671	     19.20530768	      0.00000000	     36.32051673	    -33.58259226	     39.35899846	     20.85995126	      0.36407483	     37.41355981	     16.16202749	      0.00000000	      1.03972598	      2.32130850	     -0.54267749	      1.93087512	      3.08734030	     -0.57659483	      1.70816581	      5.64402948	     -0.57659483	      1.18830282	      5.64402948	     -0.47484280	      0.96548954	      4.73361229	     -0.44092546	      0.59409942	      3.59570686	     -0.40700812	      7.42665869	     26.25910597	     -3.01820940	      0.00000000	      0.00000000	     28.49511395	     17.33663354	    -44.85932066	     99.74951014	     15.03035556	    217.00751926	      0.29536248	      2.48145888	     -5.09320116	    -22.75969101	    -30.29654538	    -85.92947133	    318.88040661	    134.33293181	      1.06700674	    -12.64600133	     -0.54112675
      5.67307692	     47.28104806	      9.17256355	    134.55261191	     -0.01978989	      0.95201958	      0.41889962	     13.98993263	     23.97104799	    -22.46252909	     17.59471549	      0.30708572	     13.65305683	     19.10564567	      0.00000000	     36.43381362	    -31.83415306	     39.17341302	     20.59538990	      0.35945736	     37.78193230	     16.56645817	      0.00000000	      1.09603836	      2.01476343	     -0.81133929	      2.03545284	      2.67963536	     -0.86204799	      1.80068142	      4.89869581	     -0.86204799	      1.25266224	      4.89869581	     -0.70992188	      1.01778122	      4.10850559	     -0.65921317	      0.62627632	      3.12086855	     -0.60850447	      7.82889239	     22.79140688	     -4.51242572	      0.00000000	      0.00000000	     28.49314135	     15.91795708	    -44.84289764	     95.52790445	     17.71355277	    219.94852199	      0.31438293	      3.08775135	     -7.49268671	    -22.11850065	    -11.18608357	    -84.60065876	    343.04976598	    132.61662292	      1.22990394	    -12.90044160	     -0.80470901
      5.69230769	     45.05744355	      6.69259254	    135.99003554	     -0.01064731	      0.95068588	      0.40681247	     14.19812057	     21.86970581	    -22.11823070	     17.94097467	      0.31312908	     15.33548342	     18.81552481	      0.00000000	     35.62209046	    -29.40003834	     38.70148762	     19.62478025	      0.34251703	     37.82958396	     16.35308569	      0.00000000	      1.15048896	      1.58841461	     -1.20962435	      2.13657305	      2.11259143	     -1.28522587	      1.89013832	      3.86207128	     -1.28522587	      1.31489384	      3.86207128	     -1.05842130	      1.06834405	      3.23909507	     -0.98281978	      0.65738939	      2.46045423	     -0.90721826	      8.21782762	     17.96846374	     -6.72756773	      0.00000000	      0.00000000	     28.48766215	     15.31572708	    -44.82069948	     90.73018388	     21.02622120	    219.93346053	      0.36673373	      3.05124328	     -6.94081672	    -20.50505807	    -11.38798520	    -83.11147056	    347.52082434	    130.86730176	      1.46336752	    -13.16292990	     -1.02749350
      5.71153846	     42.55285405	      4.60736941	    136.87274170	     -0.00344386	      0.94988376	      0.39691862	     13.72283288	     19.73729962	    -22.00984190	     18.41462465	      0.32139583	     16.96975837	     18.57041689	      0.00000000	     34.03738984	    -27.07256343	     38.01790170	     18.68783112	      0.32616418	     38.03048421	     15.99572352	      0.00000000	      1.19233879	      1.20736596	     -1.11489370	      2.21429236	      1.60579673	     -1.18457455	      1.95889339	      2.93558961	     -1.18457455	      1.36272400	      2.93558961	     -0.97553199	      1.10720580	      2.46206067	     -0.90585113	      0.68130238	      1.87020988	     -0.83617027	      8.51675672	     13.65796526	     -6.20070428	      0.00000000	      0.00000000	     28.48968435	     13.22049236	    -44.81403655	     85.23995417	     21.69387487	    213.67192382	      0.54064280	      2.31981052	     -1.69398760	    -18.44825110	     11.91845262	    -80.56753780	    375.33387417	    127.17127777	      1.78068964	    -13.43821256	     -1.34980795
      5.73076923	     39.93728927	      2.22503849	    137.02630028	      0.00268199	      0.94904324	      0.38745154	     13.17459516	     17.44237004	    -20.73333493	     18.84034642	      0.32882608	     18.20609878	     17.91322541	      0.00000000	     32.06892301	    -24.73109656	     36.60936719	     17.51432673	      0.30568267	     38.20583795	     15.58275505	      0.00000000	      1.23451808	      0.80702348	     -0.92600958	      2.29262352	      1.07334123	     -0.98388518	      2.02818975	      1.96219689	     -0.98388518	      1.41093071	      1.96219689	     -0.81025838	      1.14637349	      1.64568228	     -0.75238278	      0.70540363	      1.25007937	     -0.69450718	      8.81803918	      9.12921099	     -5.15018747	      0.00000000	      0.00000000	     28.49128473	     11.59198272	    -44.81124077	     79.65758939	     22.51100194	    213.06118826	      0.79415048	      2.18246483	     -1.10191535	    -14.79226215	     18.92364645	    -77.61480440	    386.60804670	    123.97786211	      2.30595636	    -13.84125326	     -1.45413743
      5.75000000	     37.52745524	      0.09198770	    136.85450289	      0.00787539	      0.94794649	      0.38019867	     12.81879590	     15.41501675	    -18.91136582	     19.44944011	      0.33945677	     18.44809773	     16.72545005	      0.00000000	     30.53621459	    -22.49852331	     34.68819930	     16.92124407	      0.29533142	     38.55847636	     15.88643311	      0.00000000	      1.26944697	      0.48028418	     -0.54319217	      2.35748996	      0.63877795	     -0.57714169	      2.08557442	      1.16776295	     -0.57714169	      1.45085094	      1.16776295	     -0.47529315	      1.17880845	      0.97939549	     -0.44134364	      0.72536200	      0.74396019	     -0.40739413	      9.06753274	      5.43307066	     -3.02107192	      0.00000000	      0.00000000	     28.49379323	      9.68648784	    -44.81387513	     74.34007688	     22.16338625	    211.86882979	      1.37876313	      2.24584631	     -0.78891312	    -11.19108604	     23.38082926	    -73.89597593	    395.18755051	    120.65928257	      3.32572158	    -14.42716967	     -1.37626727
      5.76923077	     35.17181091	     -1.66529169	    136.06196223	      0.01281398	      0.94757792	      0.37508446	     12.50003141	     13.71390507	    -16.34604217	     20.27699269	      0.35390028	     17.69043769	     15.10592557	      0.00000000	     28.90705511	    -20.58322648	     32.41561753	     16.51167687	      0.28818313	     38.82563921	     16.14358404	      0.00000000	      1.25413390	      0.23333152	      0.06469929	      2.32905206	      0.31033092	      0.06874299	      2.06041658	      0.56732225	      0.06874299	      1.43334963	      0.56732225	      0.05661188	      1.16458874	      0.47580963	      0.05256817	      0.71661211	      0.36143052	      0.04852447	      8.95815301	      2.63949278	      0.35983803	      0.00000000	      0.00000000	     28.49365841	      7.73894866	    -44.81505201	     69.53570447	     20.53407692	    210.74666193	      2.36476781	      2.62433147	     -1.64139476	     -8.43698544	     25.80072020	    -69.57279715	    401.61649346	    117.09610123	      6.32155638	    -15.38357171	     -0.92994584
      5.78846154	     32.77337718	     -3.25805780	    134.79525295	      0.01789846	      0.94809856	      0.37263702	     12.44196326	     11.95698123	    -13.94453106	     21.43713071	      0.37414851	     16.76304536	     13.38484658	      0.00000000	     27.33999773	    -18.67699519	     29.89632326	     16.27818255	      0.28410788	     38.82257150	     16.19008462	      0.00000000	      1.19027937	      0.04497314	      0.82002285	      2.21046781	      0.05981428	      0.87127427	      1.95550997	      0.10934770	      0.87127427	      1.36037029	      0.10934770	      0.71751999	      1.10529342	      0.09170923	      0.66626856	      0.68012563	      0.06966340	      0.61501713	      8.50204648	      0.50874517	      4.56072106	      0.00000000	      0.00000000	     28.48963169	      5.82784515	    -44.81062247	     65.20100173	     17.71633735	    207.46290345	      3.59904046	      3.59890517	     -2.66786861	     -6.64048869	     26.34977434	    -64.88183129	    405.69077998	    112.60929125	     23.40911030	    -17.66625614	      2.05856080
      5.80769231	     30.19069638	     -4.91331713	    133.35756167	      0.02282944	      0.94928572	      0.37322772	     12.70179468	      9.60090964	    -13.12689574	     22.81362256	      0.39817283	     16.35979354	     12.65893936	      0.00000000	     26.01612810	    -16.36587018	     27.25827413	     16.21763120	      0.28305106	     38.39253097	     16.05456907	      0.00000000	      1.08570701	     -0.11486218	      1.67746543	      2.01626649	     -0.15276670	      1.78230702	      1.78370805	     -0.27927590	      1.78230702	      1.24085454	     -0.27927590	      1.46778225	      1.00818753	     -0.23422696	      1.36294066	      0.62037299	     -0.17792152	      1.25809907	      7.75509660	     -1.29934395	      9.32955947	      0.00000000	      0.00000000	     28.48088971	      3.60740208	    -44.79667641	     60.95654356	     13.74149959	    204.14760613	      4.25743733	      4.58748393	     -3.80585314	     -5.92726366	     26.12100838	    -59.62280034	    408.28264122	    107.40380838	     49.66313325	    -19.15028691	      8.13828108
      5.82692308	     27.49531940	     -6.59969440	    131.82235192	      0.02724018	      0.95101988	      0.37623050	     13.14704497	      6.72799375	    -13.84060432	     24.08280254	      0.42032420	     16.36338264	     12.82728219	      0.00000000	     25.02515088	    -13.70959542	     24.67982160	     16.41688750	      0.28652874	     37.50818473	     15.60500790	      0.00000000	      0.94742041	     -0.24139358	      2.61459241	      1.75945444	     -0.32105347	      2.77800443	      1.55651699	     -0.58692436	      2.77800443	      1.08280678	     -0.58692436	      2.28776836	      0.87977459	     -0.49224980	      2.12435633	      0.54135602	     -0.37391866	      1.96094431	      6.76732922	     -2.73069250	     14.54157860	      0.00000000	      0.00000000	     28.46539786	      0.73692861	    -44.76689986	     56.62707151	      8.89974962	    199.19301059	      4.50350426	      4.86516870	     -4.15628705	     -6.33113931	     25.63151504	    -53.58961792	    410.93538897	    101.82367530	     65.90474478	    -19.59990001	     13.77348798
